<?xml version="1.0" standalone="no"?>
<!DOCTYPE svg PUBLIC "-//W3C//DTD SVG 20010904//EN"
 "http://www.w3.org/TR/2001/REC-SVG-20010904/DTD/svg10.dtd">
<svg version="1.0" xmlns="http://www.w3.org/2000/svg"
 width="511.000000pt" height="500.000000pt" viewBox="0 0 511.000000 500.000000"
 preserveAspectRatio="xMidYMid meet">

<g transform="translate(0.000000,500.000000) scale(0.100000,-0.100000)"
fill="#000000" stroke="none">
<path d="M1150 4487 c-117 -34 -202 -103 -252 -205 -31 -62 -33 -73 -33 -172
0 -99 2 -109 32 -165 114 -217 381 -281 576 -138 190 139 201 428 23 591 -91
83 -237 120 -346 89z"/>
<path d="M3515 4276 c-306 -59 -606 -213 -912 -469 l-101 -85 -64 55 c-151
131 -352 269 -505 346 l-70 36 -6 -82 c-7 -88 -28 -169 -58 -228 l-18 -36 82
-32 c111 -43 244 -118 350 -196 l88 -65 -72 -83 c-207 -238 -408 -540 -545
-819 -30 -61 -56 -113 -58 -116 -3 -2 -47 17 -99 42 -307 147 -522 375 -607
641 -30 94 -31 244 -3 330 l20 61 -40 24 c-63 40 -164 154 -201 228 -37 74
-66 171 -66 221 0 17 -4 31 -9 31 -12 0 -91 -87 -130 -143 -47 -69 -88 -165
-113 -265 -18 -71 -22 -115 -22 -237 1 -133 4 -160 27 -238 88 -288 299 -540
619 -739 108 -67 298 -157 421 -199 86 -30 97 -36 92 -54 -72 -257 -88 -359
-89 -550 0 -115 5 -185 18 -250 9 -49 20 -93 23 -98 2 -4 23 9 46 30 95 88
196 140 315 163 34 7 62 15 62 19 0 3 -9 40 -20 81 -27 100 -36 288 -20 416 6
55 15 106 18 112 5 7 47 4 137 -9 269 -40 722 -40 998 -1 89 13 130 15 133 8
10 -29 24 -191 24 -277 0 -402 -208 -699 -538 -767 -66 -13 -81 -20 -76 -32 4
-8 9 -61 11 -116 8 -147 -22 -261 -97 -381 -8 -12 -11 -25 -7 -29 12 -12 256
14 342 37 217 56 425 195 558 374 141 189 227 458 227 712 0 115 -25 290 -61
429 -17 66 -31 125 -32 132 -1 9 33 27 93 48 137 50 329 145 437 216 51 34 93
64 93 67 0 4 -21 17 -47 31 -58 31 -154 118 -194 177 l-30 43 -59 -49 c-107
-89 -221 -160 -340 -211 l-65 -28 -90 176 c-98 192 -175 318 -293 482 -80 112
-225 293 -261 324 -11 11 -21 23 -21 28 0 14 32 39 135 109 243 166 500 248
736 236 180 -9 309 -64 409 -174 l51 -56 67 31 c144 67 310 79 452 33 35 -11
65 -19 67 -17 6 6 -48 152 -74 195 -111 193 -293 325 -529 387 -84 22 -126 27
-269 30 -115 2 -193 -1 -240 -10z m-899 -1078 c124 -149 234 -319 322 -495 46
-90 127 -291 121 -298 -3 -2 -67 -13 -144 -25 -182 -27 -470 -36 -645 -21
-119 10 -320 39 -328 46 -7 6 71 191 127 304 104 208 225 387 369 550 l66 73
25 -30 c14 -16 53 -63 87 -104z"/>
<path d="M4287 3479 c-87 -21 -177 -81 -227 -153 -137 -200 -62 -471 158 -574
50 -24 69 -27 157 -27 93 0 105 2 167 33 151 74 240 244 210 404 -42 224 -251
367 -465 317z"/>
<path d="M1854 1271 c-234 -60 -357 -319 -255 -537 138 -296 553 -293 698 5
24 49 27 68 28 156 0 88 -3 107 -27 157 -37 79 -108 152 -185 190 -54 26 -78
32 -146 34 -45 2 -96 -1 -113 -5z"/>
</g>
</svg>
